# xmcd
#
# Track frame offsets:
#	150
#	17718
#	31183
#	45280
#	57703
#	70090
#	85923
#	98508
#	110625
#	122758
#	134770
#	146463
#	168605
#	182058
#	193755
#	208600
#
# Disc length: 2939 seconds
#
# Revision: 4
# Processed by: cddbd v1.5.2PL0 Copyright (c) Steve Scherf et al.
# Submitted via: audiograbber 1.83.01
#
DISCID=e50b7910
DTITLE=Various Artist - Play Me The Blues... [CD5)
DYEAR=1991
DGENRE=Blues
TTITLE0=Mike Bloomfield - Jockey Blues
TTITLE1=Leadbelly - Backwater Blues
TTITLE2=Howlin' Wolf - Smokestack Lightning
TTITLE3=Sonny Boy Williamson - Trust Me Baby
TTITLE4=Little Walter - Last Night
TTITLE5=Johhny Winter - Self Destruction Blues
TTITLE6=Elmore James - I Need You
TTITLE7=Muddy Waters - Long Distance Call
TTITLE8=Memphis Slim - Trouble, Trouble
TTITLE9=Johhny Guitar Wilson - One Room Country Shack
TTITLE10=Sonny Boy Williamson - Stop Crying
TTITLE11=John Mayal - A Big Man
TTITLE12=Howlin' Wolf - Tail Dragger
TTITLE13=Elmore James - Fine Little Mama
TTITLE14=John Lee Hooker - Sugar Mama
TTITLE15=Big Joe Williams - Ride In My New Car
EXTD=TR.
EXTT0=
EXTT1=
EXTT2=
EXTT3=
EXTT4=
EXTT5=
EXTT6=
EXTT7=
EXTT8=
EXTT9=
EXTT10=
EXTT11=
EXTT12=
EXTT13=
EXTT14=
EXTT15=
PLAYORDER=
